<?xml version="1.0" encoding="UTF-8"?>
<svg width="64" height="64" version="1.1" viewBox="0 0 16.933 16.933" xmlns="http://www.w3.org/2000/svg">
 <g>
  <path d="m3.6316 13.99c-1.4853-0.61889-2.0578-1.6091-2.0269-3.5122v-4.193c0-1.7948 0.57248-2.7386 2.0269-3.342v-1.1604c-1.965 0.54153-3.1718 2.1816-3.1099 4.2858v4.6107c-0.077362 2.259 1.0057 3.8217 3.1099 4.4715z"/>
  <path d="m13.302 2.9431c1.4853 0.60342 2.0578 1.6091 2.0269 3.4967v4.2085c0 1.7948-0.57248 2.7231-2.0269 3.342v1.1604c1.965-0.54153 3.1718-2.1816 3.1099-4.3013v-4.5953c0.07736-2.2744-1.0057-3.8217-3.1099-4.4715z"/>
  <path d="m6.3151 10.572q0 0.28503 0.16091 0.41836 0.1655 0.12872 0.46893 0.12872 0.33101 0 0.6896-0.14711l0.3494 0.97003q-0.61144 0.32181-1.4114 0.32181-0.8597 0-1.2872-0.49191-0.42295-0.49651-0.42295-1.3792v-4.1146h-1.439v-0.99302h2.8917z"/>
  <path d="m11.391 4.6693q0.24826 0 0.44134 0.11034 0.19309 0.10574 0.30342 0.29423 0.11034 0.18389 0.11034 0.41376t-0.11034 0.41836q-0.11034 0.18849-0.30802 0.29882-0.19309 0.10574-0.43674 0.10574-0.24825 0-0.44594-0.10574-0.19768-0.11034-0.30802-0.29882-0.11034-0.18849-0.11034-0.41836t0.11034-0.41376q0.11034-0.18849 0.30802-0.29423 0.19768-0.11034 0.44594-0.11034zm-1.9125 2.5561h2.7906v3.8893h1.2413v0.99302h-4.0778v-0.99302h1.3838v-2.8963h-1.3378z"/>
 </g>
</svg>
